<mxfile host="app.diagrams.net" modified="2022-10-18T14:09:36.313Z" agent="5.0 (Macintosh; Intel Mac OS X 10_15_7) AppleWebKit/537.36 (KHTML, like Gecko) Chrome/105.0.0.0 Safari/537.36" etag="gmcjAOdK5RkYpv7VdSL8" version="20.3.6" type="github">
  <diagram id="R2lEEEUBdFMjLlhIrx00" name="Page-1">
    <mxGraphModel dx="2830" dy="1685" grid="0" gridSize="10" guides="1" tooltips="1" connect="1" arrows="1" fold="1" page="1" pageScale="1" pageWidth="850" pageHeight="1100" math="0" shadow="0" extFonts="Permanent Marker^https://fonts.googleapis.com/css?family=Permanent+Marker">
      <root>
        <mxCell id="0" />
        <mxCell id="1" parent="0" />
        <mxCell id="TgfO3DaoS5tFxl0CVbs7-72" value="" style="rounded=0;whiteSpace=wrap;html=1;" vertex="1" parent="1">
          <mxGeometry x="-1096.01" y="-892.75" width="98" height="53.5" as="geometry" />
        </mxCell>
        <mxCell id="TgfO3DaoS5tFxl0CVbs7-1" value="" style="rounded=0;whiteSpace=wrap;html=1;" vertex="1" parent="1">
          <mxGeometry x="-1091.37" y="-1022.75" width="98" height="53.5" as="geometry" />
        </mxCell>
        <mxCell id="2HxDNWxX9x-t6P_iHvOr-3" style="edgeStyle=orthogonalEdgeStyle;rounded=0;orthogonalLoop=1;jettySize=auto;html=1;exitX=0.5;exitY=1;exitDx=0;exitDy=0;entryX=0.5;entryY=0;entryDx=0;entryDy=0;" parent="1" source="sm-JpirICVqM3WR0F_5m-94" target="sm-JpirICVqM3WR0F_5m-95" edge="1">
          <mxGeometry relative="1" as="geometry">
            <Array as="points">
              <mxPoint x="-1387" y="-770" />
              <mxPoint x="-1387" y="-770" />
            </Array>
          </mxGeometry>
        </mxCell>
        <mxCell id="sm-JpirICVqM3WR0F_5m-149" value="" style="endArrow=none;html=1;rounded=0;fontSize=16;exitX=0.934;exitY=0.536;exitDx=0;exitDy=0;exitPerimeter=0;" parent="1" source="sm-JpirICVqM3WR0F_5m-153" edge="1">
          <mxGeometry width="50" height="50" relative="1" as="geometry">
            <mxPoint x="-1114.38" y="-848.5" as="sourcePoint" />
            <mxPoint x="-1096" y="-870" as="targetPoint" />
          </mxGeometry>
        </mxCell>
        <mxCell id="sm-JpirICVqM3WR0F_5m-163" value="" style="endArrow=none;html=1;rounded=0;fontSize=16;entryX=0;entryY=0.75;entryDx=0;entryDy=0;exitX=0.5;exitY=0;exitDx=0;exitDy=0;" parent="1" source="sm-JpirICVqM3WR0F_5m-106" edge="1">
          <mxGeometry width="50" height="50" relative="1" as="geometry">
            <mxPoint x="-1431.13" y="-681" as="sourcePoint" />
            <mxPoint x="-1389.87" y="-713.5" as="targetPoint" />
            <Array as="points">
              <mxPoint x="-1389.63" y="-683.5" />
            </Array>
          </mxGeometry>
        </mxCell>
        <mxCell id="sm-JpirICVqM3WR0F_5m-157" value="" style="endArrow=none;html=1;rounded=0;fontSize=16;entryX=0.5;entryY=0;entryDx=0;entryDy=0;" parent="1" target="sm-JpirICVqM3WR0F_5m-97" edge="1">
          <mxGeometry width="50" height="50" relative="1" as="geometry">
            <mxPoint x="-1275.63" y="-875.5" as="sourcePoint" />
            <mxPoint x="-1278.1325000000002" y="-793.5000000000002" as="targetPoint" />
          </mxGeometry>
        </mxCell>
        <mxCell id="sm-JpirICVqM3WR0F_5m-156" value="" style="endArrow=none;html=1;rounded=0;fontSize=16;" parent="1" source="sm-JpirICVqM3WR0F_5m-95" edge="1">
          <mxGeometry width="50" height="50" relative="1" as="geometry">
            <mxPoint x="-1342.13" y="-743.5" as="sourcePoint" />
            <mxPoint x="-1288.63" y="-738.5" as="targetPoint" />
          </mxGeometry>
        </mxCell>
        <mxCell id="sm-JpirICVqM3WR0F_5m-155" value="" style="endArrow=none;html=1;rounded=0;fontSize=16;" parent="1" edge="1">
          <mxGeometry width="50" height="50" relative="1" as="geometry">
            <mxPoint x="-1381" y="-800" as="sourcePoint" />
            <mxPoint x="-1381" y="-723" as="targetPoint" />
            <Array as="points" />
          </mxGeometry>
        </mxCell>
        <mxCell id="sm-JpirICVqM3WR0F_5m-152" value="" style="endArrow=classic;html=1;rounded=0;fontSize=16;exitX=0;exitY=0.5;exitDx=0;exitDy=0;entryX=1;entryY=1;entryDx=0;entryDy=0;" parent="1" source="sm-JpirICVqM3WR0F_5m-153" target="sm-JpirICVqM3WR0F_5m-85" edge="1">
          <mxGeometry width="50" height="50" relative="1" as="geometry">
            <mxPoint x="-1168.63" y="-880.5" as="sourcePoint" />
            <mxPoint x="-1288.63" y="-973.5" as="targetPoint" />
          </mxGeometry>
        </mxCell>
        <mxCell id="sm-JpirICVqM3WR0F_5m-153" value="" style="shape=rhombus;perimeter=rhombusPerimeter;whiteSpace=wrap;html=1;align=center;fontSize=16;rotation=30;" parent="1" vertex="1">
          <mxGeometry x="-1217.63" y="-923.5" width="88" height="60" as="geometry" />
        </mxCell>
        <mxCell id="sm-JpirICVqM3WR0F_5m-147" value="" style="endArrow=none;html=1;rounded=0;fontSize=16;exitX=1;exitY=0.5;exitDx=0;exitDy=0;entryX=0;entryY=1;entryDx=0;entryDy=0;" parent="1" source="TgfO3DaoS5tFxl0CVbs7-4" target="TgfO3DaoS5tFxl0CVbs7-1" edge="1">
          <mxGeometry width="50" height="50" relative="1" as="geometry">
            <mxPoint x="-1141.13" y="-949.5" as="sourcePoint" />
            <mxPoint x="-1095" y="-971" as="targetPoint" />
          </mxGeometry>
        </mxCell>
        <mxCell id="sm-JpirICVqM3WR0F_5m-139" value="" style="endArrow=none;html=1;rounded=0;fontSize=16;exitX=1;exitY=0.5;exitDx=0;exitDy=0;" parent="1" source="TgfO3DaoS5tFxl0CVbs7-2" edge="1">
          <mxGeometry width="50" height="50" relative="1" as="geometry">
            <mxPoint x="-1182.63" y="-1073.5" as="sourcePoint" />
            <mxPoint x="-1091" y="-1022" as="targetPoint" />
          </mxGeometry>
        </mxCell>
        <mxCell id="sm-JpirICVqM3WR0F_5m-140" value="" style="endArrow=none;html=1;rounded=0;fontSize=16;" parent="1" edge="1">
          <mxGeometry width="50" height="50" relative="1" as="geometry">
            <mxPoint x="-1151" y="-1047" as="sourcePoint" />
            <mxPoint x="-1091" y="-1016" as="targetPoint" />
          </mxGeometry>
        </mxCell>
        <mxCell id="sm-JpirICVqM3WR0F_5m-127" value="" style="endArrow=none;html=1;rounded=0;exitX=1;exitY=0.5;exitDx=0;exitDy=0;" parent="1" source="sm-JpirICVqM3WR0F_5m-115" edge="1">
          <mxGeometry relative="1" as="geometry">
            <mxPoint x="-1384.63" y="-1055.5" as="sourcePoint" />
            <mxPoint x="-1288.63" y="-1013.5" as="targetPoint" />
            <Array as="points" />
          </mxGeometry>
        </mxCell>
        <mxCell id="sm-JpirICVqM3WR0F_5m-123" value="" style="endArrow=none;html=1;rounded=0;fontSize=16;exitX=1;exitY=0.5;exitDx=0;exitDy=0;" parent="1" source="sm-JpirICVqM3WR0F_5m-110" edge="1">
          <mxGeometry width="50" height="50" relative="1" as="geometry">
            <mxPoint x="-1448.63" y="-953.5" as="sourcePoint" />
            <mxPoint x="-1358.63" y="-983.5" as="targetPoint" />
          </mxGeometry>
        </mxCell>
        <mxCell id="sm-JpirICVqM3WR0F_5m-96" value="" style="rounded=0;whiteSpace=wrap;html=1;" parent="1" vertex="1">
          <mxGeometry x="-1431.75" y="-763.5" width="90.62" height="50" as="geometry" />
        </mxCell>
        <mxCell id="sm-JpirICVqM3WR0F_5m-69" value="" style="resizable=0;html=1;align=right;verticalAlign=bottom;rounded=0;glass=0;sketch=1;fontSize=17;" parent="1" connectable="0" vertex="1">
          <mxGeometry x="-1380.6300000625001" y="-960.496000000002" as="geometry" />
        </mxCell>
        <mxCell id="sm-JpirICVqM3WR0F_5m-84" value="" style="endArrow=none;html=1;rounded=0;entryX=0.917;entryY=0;entryDx=0;entryDy=0;entryPerimeter=0;exitX=0;exitY=0.5;exitDx=0;exitDy=0;" parent="1" source="sm-JpirICVqM3WR0F_5m-115" edge="1">
          <mxGeometry relative="1" as="geometry">
            <mxPoint x="-1366.13" y="-1073" as="sourcePoint" />
            <mxPoint x="-1366.1" y="-1013.5" as="targetPoint" />
          </mxGeometry>
        </mxCell>
        <mxCell id="sm-JpirICVqM3WR0F_5m-85" value="&lt;font style=&quot;font-size: 16px;&quot;&gt;&lt;b&gt;Users&lt;/b&gt;&lt;/font&gt;" style="rounded=0;whiteSpace=wrap;html=1;" parent="1" vertex="1">
          <mxGeometry x="-1365.88" y="-1013.5" width="81.25" height="40" as="geometry" />
        </mxCell>
        <mxCell id="sm-JpirICVqM3WR0F_5m-88" value="" style="shape=partialRectangle;whiteSpace=wrap;html=1;bottom=1;right=1;left=1;top=0;fillColor=none;routingCenterX=-0.5;rounded=0;glass=0;sketch=1;fontSize=12;rotation=-180;" parent="1" vertex="1">
          <mxGeometry x="-1371.13" y="-943.5" width="85" height="30" as="geometry" />
        </mxCell>
        <mxCell id="sm-JpirICVqM3WR0F_5m-91" value="" style="endArrow=classic;html=1;rounded=0;fontSize=16;" parent="1" edge="1">
          <mxGeometry width="50" height="50" relative="1" as="geometry">
            <mxPoint x="-1329.13" y="-945.5" as="sourcePoint" />
            <mxPoint x="-1329.13" y="-975.5" as="targetPoint" />
          </mxGeometry>
        </mxCell>
        <mxCell id="sm-JpirICVqM3WR0F_5m-92" value="&lt;font style=&quot;font-size: 16px;&quot;&gt;&lt;b&gt;Hosts&lt;/b&gt;&lt;/font&gt;" style="rounded=0;whiteSpace=wrap;html=1;" parent="1" vertex="1">
          <mxGeometry x="-1429.88" y="-913.5" width="81.25" height="40" as="geometry" />
        </mxCell>
        <mxCell id="sm-JpirICVqM3WR0F_5m-93" value="&lt;font style=&quot;font-size: 16px;&quot;&gt;&lt;b&gt;Fans&lt;/b&gt;&lt;/font&gt;" style="rounded=0;whiteSpace=wrap;html=1;" parent="1" vertex="1">
          <mxGeometry x="-1323.63" y="-913.5" width="81.25" height="40" as="geometry" />
        </mxCell>
        <mxCell id="2HxDNWxX9x-t6P_iHvOr-2" style="edgeStyle=orthogonalEdgeStyle;rounded=0;orthogonalLoop=1;jettySize=auto;html=1;exitX=0.5;exitY=0;exitDx=0;exitDy=0;" parent="1" source="sm-JpirICVqM3WR0F_5m-94" edge="1">
          <mxGeometry relative="1" as="geometry">
            <mxPoint x="-1386.63" y="-873.5" as="targetPoint" />
            <Array as="points">
              <mxPoint x="-1386.63" y="-873.5" />
            </Array>
          </mxGeometry>
        </mxCell>
        <mxCell id="sm-JpirICVqM3WR0F_5m-94" value="create" style="shape=rhombus;double=1;perimeter=rhombusPerimeter;whiteSpace=wrap;html=1;align=center;rounded=0;glass=0;sketch=1;fontSize=15;" parent="1" vertex="1">
          <mxGeometry x="-1438" y="-847" width="103.12" height="53.5" as="geometry" />
        </mxCell>
        <mxCell id="sm-JpirICVqM3WR0F_5m-95" value="&lt;font style=&quot;font-size: 16px;&quot;&gt;&lt;b&gt;Events&lt;/b&gt;&lt;/font&gt;" style="rounded=0;whiteSpace=wrap;html=1;" parent="1" vertex="1">
          <mxGeometry x="-1422.38" y="-753.5" width="71.25" height="30" as="geometry" />
        </mxCell>
        <mxCell id="sm-JpirICVqM3WR0F_5m-97" value="join" style="shape=rhombus;perimeter=rhombusPerimeter;whiteSpace=wrap;html=1;align=center;fontSize=16;" parent="1" vertex="1">
          <mxGeometry x="-1310" y="-761" width="69" height="45" as="geometry" />
        </mxCell>
        <mxCell id="sm-JpirICVqM3WR0F_5m-105" value="sponsor" style="shape=rhombus;perimeter=rhombusPerimeter;whiteSpace=wrap;html=1;align=center;fontSize=16;" parent="1" vertex="1">
          <mxGeometry x="-1439.13" y="-658.5" width="98" height="60" as="geometry" />
        </mxCell>
        <mxCell id="sm-JpirICVqM3WR0F_5m-106" value="&lt;span style=&quot;font-size: 16px;&quot;&gt;&lt;b&gt;Brands&lt;/b&gt;&lt;/span&gt;" style="rounded=0;whiteSpace=wrap;html=1;" parent="1" vertex="1">
          <mxGeometry x="-1426.38" y="-563.5" width="71.25" height="30" as="geometry" />
        </mxCell>
        <mxCell id="sm-JpirICVqM3WR0F_5m-107" value="0:3" style="text;html=1;align=center;verticalAlign=middle;resizable=0;points=[];autosize=1;strokeColor=none;fillColor=none;fontSize=16;" parent="1" vertex="1">
          <mxGeometry x="-1278.63" y="-835.25" width="50" height="30" as="geometry" />
        </mxCell>
        <mxCell id="sm-JpirICVqM3WR0F_5m-110" value="vote" style="shape=rhombus;perimeter=rhombusPerimeter;whiteSpace=wrap;html=1;align=center;fontSize=16;" parent="1" vertex="1">
          <mxGeometry x="-1493" y="-972" width="61.25" height="37" as="geometry" />
        </mxCell>
        <mxCell id="sm-JpirICVqM3WR0F_5m-113" value="&lt;font size=&quot;1&quot; style=&quot;&quot;&gt;&lt;b style=&quot;font-size: 16px;&quot;&gt;Teams&lt;/b&gt;&lt;/font&gt;" style="rounded=0;whiteSpace=wrap;html=1;" parent="1" vertex="1">
          <mxGeometry x="-1612" y="-972" width="84" height="37" as="geometry" />
        </mxCell>
        <mxCell id="sm-JpirICVqM3WR0F_5m-114" value="&lt;font style=&quot;font-size: 16px;&quot;&gt;&lt;b&gt;Post&lt;/b&gt;&lt;/font&gt;" style="rounded=0;whiteSpace=wrap;html=1;" parent="1" vertex="1">
          <mxGeometry x="-1083" y="-1016" width="81.25" height="40" as="geometry" />
        </mxCell>
        <mxCell id="sm-JpirICVqM3WR0F_5m-115" value="follow" style="shape=rhombus;perimeter=rhombusPerimeter;whiteSpace=wrap;html=1;align=center;fontSize=16;" parent="1" vertex="1">
          <mxGeometry x="-1365.9699999999998" y="-1090" width="77.34" height="56.5" as="geometry" />
        </mxCell>
        <mxCell id="sm-JpirICVqM3WR0F_5m-116" value="post" style="shape=rhombus;perimeter=rhombusPerimeter;whiteSpace=wrap;html=1;align=center;fontSize=16;" parent="1" vertex="1">
          <mxGeometry x="-1217.63" y="-1072" width="69" height="45" as="geometry" />
        </mxCell>
        <mxCell id="sm-JpirICVqM3WR0F_5m-119" value="raise" style="shape=rhombus;perimeter=rhombusPerimeter;whiteSpace=wrap;html=1;align=center;fontSize=16;rotation=30;" parent="1" vertex="1">
          <mxGeometry x="-1208.63" y="-916" width="69" height="45" as="geometry" />
        </mxCell>
        <mxCell id="sm-JpirICVqM3WR0F_5m-122" value="0:3" style="text;html=1;align=center;verticalAlign=middle;resizable=0;points=[];autosize=1;strokeColor=none;fillColor=none;fontSize=16;" parent="1" vertex="1">
          <mxGeometry x="-1431.75" y="-990.5" width="50" height="30" as="geometry" />
        </mxCell>
        <mxCell id="sm-JpirICVqM3WR0F_5m-131" value="" style="endArrow=none;html=1;rounded=0;fontSize=16;" parent="1" edge="1">
          <mxGeometry width="50" height="50" relative="1" as="geometry">
            <mxPoint x="-1488.63" y="-953.5" as="sourcePoint" />
            <mxPoint x="-1528.63" y="-953.5" as="targetPoint" />
          </mxGeometry>
        </mxCell>
        <mxCell id="sm-JpirICVqM3WR0F_5m-136" value="" style="endArrow=none;dashed=1;html=1;rounded=0;fontSize=16;" parent="1" edge="1">
          <mxGeometry width="50" height="50" relative="1" as="geometry">
            <mxPoint x="-1362.63" y="-959" as="sourcePoint" />
            <mxPoint x="-1327.63" y="-959" as="targetPoint" />
          </mxGeometry>
        </mxCell>
        <mxCell id="sm-JpirICVqM3WR0F_5m-137" value="&lt;font style=&quot;font-size: 13px;&quot;&gt;total&lt;/font&gt;" style="text;html=1;align=center;verticalAlign=middle;resizable=0;points=[];autosize=1;strokeColor=none;fillColor=none;fontSize=16;" parent="1" vertex="1">
          <mxGeometry x="-1401.13" y="-977" width="50" height="30" as="geometry" />
        </mxCell>
        <mxCell id="sm-JpirICVqM3WR0F_5m-138" value="" style="endArrow=classic;html=1;rounded=0;fontSize=16;exitX=0;exitY=0.5;exitDx=0;exitDy=0;" parent="1" source="TgfO3DaoS5tFxl0CVbs7-2" edge="1">
          <mxGeometry width="50" height="50" relative="1" as="geometry">
            <mxPoint x="-1284.63" y="-975.5" as="sourcePoint" />
            <mxPoint x="-1284.63" y="-1005.5" as="targetPoint" />
          </mxGeometry>
        </mxCell>
        <mxCell id="sm-JpirICVqM3WR0F_5m-142" value="" style="endArrow=none;html=1;rounded=0;fontSize=16;exitX=0.908;exitY=0.435;exitDx=0;exitDy=0;exitPerimeter=0;" parent="1" source="TgfO3DaoS5tFxl0CVbs7-3" edge="1">
          <mxGeometry width="50" height="50" relative="1" as="geometry">
            <mxPoint x="-1141.13" y="-996" as="sourcePoint" />
            <mxPoint x="-1090" y="-999" as="targetPoint" />
          </mxGeometry>
        </mxCell>
        <mxCell id="sm-JpirICVqM3WR0F_5m-120" value="&lt;span style=&quot;font-size: 16px;&quot;&gt;&lt;b&gt;Question&lt;/b&gt;&lt;/span&gt;" style="rounded=0;whiteSpace=wrap;html=1;" parent="1" vertex="1">
          <mxGeometry x="-1087.63" y="-882.25" width="81.25" height="32.5" as="geometry" />
        </mxCell>
        <mxCell id="sm-JpirICVqM3WR0F_5m-214" value="" style="endArrow=none;html=1;rounded=0;fontSize=16;exitX=0.93;exitY=0.425;exitDx=0;exitDy=0;exitPerimeter=0;" parent="1" source="sm-JpirICVqM3WR0F_5m-153" edge="1">
          <mxGeometry width="50" height="50" relative="1" as="geometry">
            <mxPoint x="-1103.13" y="-853.5" as="sourcePoint" />
            <mxPoint x="-1097" y="-876" as="targetPoint" />
          </mxGeometry>
        </mxCell>
        <mxCell id="sm-JpirICVqM3WR0F_5m-217" value="Users" style="swimlane;fontStyle=0;childLayout=stackLayout;horizontal=1;startSize=26;horizontalStack=0;resizeParent=1;resizeParentMax=0;resizeLast=0;collapsible=1;marginBottom=0;align=center;fontSize=14;" parent="1" vertex="1">
          <mxGeometry x="-1551" y="70" width="148" height="287" as="geometry">
            <mxRectangle x="-1551" y="70" width="72" height="29" as="alternateBounds" />
          </mxGeometry>
        </mxCell>
        <mxCell id="2HxDNWxX9x-t6P_iHvOr-8" value="" style="endArrow=none;html=1;rounded=0;" parent="sm-JpirICVqM3WR0F_5m-217" edge="1">
          <mxGeometry width="50" height="50" relative="1" as="geometry">
            <mxPoint x="38.75" y="44.55000000000001" as="sourcePoint" />
            <mxPoint x="104" y="45" as="targetPoint" />
          </mxGeometry>
        </mxCell>
        <mxCell id="sm-JpirICVqM3WR0F_5m-221" value="Fans" style="swimlane;fontStyle=0;childLayout=stackLayout;horizontal=1;startSize=26;horizontalStack=0;resizeParent=1;resizeParentMax=0;resizeLast=0;collapsible=1;marginBottom=0;align=center;fontSize=14;" parent="1" vertex="1">
          <mxGeometry x="-1388.63" y="70" width="110" height="100" as="geometry" />
        </mxCell>
        <mxCell id="2HxDNWxX9x-t6P_iHvOr-9" value="" style="endArrow=none;html=1;rounded=0;" parent="sm-JpirICVqM3WR0F_5m-221" edge="1">
          <mxGeometry width="50" height="50" relative="1" as="geometry">
            <mxPoint x="38" y="44.55000000000001" as="sourcePoint" />
            <mxPoint x="68" y="44.55000000000001" as="targetPoint" />
          </mxGeometry>
        </mxCell>
        <mxCell id="sm-JpirICVqM3WR0F_5m-222" value="ID&#xa;if_tickets (boleen)&#xa;if_player (boleen)&#xa;country_fan (string)&#xa;&#xa;" style="text;strokeColor=none;fillColor=none;spacingLeft=4;spacingRight=4;overflow=hidden;rotatable=0;points=[[0,0.5],[1,0.5]];portConstraint=eastwest;fontSize=12;align=center;" parent="sm-JpirICVqM3WR0F_5m-221" vertex="1">
          <mxGeometry y="26" width="110" height="74" as="geometry" />
        </mxCell>
        <mxCell id="sm-JpirICVqM3WR0F_5m-223" value="Hosts" style="swimlane;fontStyle=0;childLayout=stackLayout;horizontal=1;startSize=26;horizontalStack=0;resizeParent=1;resizeParentMax=0;resizeLast=0;collapsible=1;marginBottom=0;align=center;fontSize=14;" parent="1" vertex="1">
          <mxGeometry x="-1388.63" y="186.5" width="110" height="80" as="geometry" />
        </mxCell>
        <mxCell id="2HxDNWxX9x-t6P_iHvOr-11" value="" style="endArrow=none;html=1;rounded=0;" parent="sm-JpirICVqM3WR0F_5m-223" edge="1">
          <mxGeometry width="50" height="50" relative="1" as="geometry">
            <mxPoint x="40" y="46" as="sourcePoint" />
            <mxPoint x="70" y="46" as="targetPoint" />
          </mxGeometry>
        </mxCell>
        <mxCell id="sm-JpirICVqM3WR0F_5m-256" value="ID&#xa;name (string)&#xa;description (string)&#xa; &#xa;" style="text;strokeColor=none;fillColor=none;spacingLeft=4;spacingRight=4;overflow=hidden;rotatable=0;points=[[0,0.5],[1,0.5]];portConstraint=eastwest;fontSize=12;align=center;" parent="sm-JpirICVqM3WR0F_5m-223" vertex="1">
          <mxGeometry y="26" width="110" height="54" as="geometry" />
        </mxCell>
        <mxCell id="sm-JpirICVqM3WR0F_5m-225" value="Events" style="swimlane;fontStyle=0;childLayout=stackLayout;horizontal=1;startSize=26;horizontalStack=0;resizeParent=1;resizeParentMax=0;resizeLast=0;collapsible=1;marginBottom=0;align=center;fontSize=14;" parent="1" vertex="1">
          <mxGeometry x="-1386.13" y="283" width="115" height="160" as="geometry" />
        </mxCell>
        <mxCell id="2HxDNWxX9x-t6P_iHvOr-14" value="" style="endArrow=none;html=1;rounded=0;" parent="sm-JpirICVqM3WR0F_5m-225" edge="1">
          <mxGeometry width="50" height="50" relative="1" as="geometry">
            <mxPoint x="42.5" y="46" as="sourcePoint" />
            <mxPoint x="72.5" y="46" as="targetPoint" />
          </mxGeometry>
        </mxCell>
        <mxCell id="sm-JpirICVqM3WR0F_5m-226" value="ID&#xa;theme (string)&#xa;place (string)&#xa;start_time (date)&#xa;end_time (date)&#xa;description (string)&#xa;max_capacity (int)&#xa;registration_fee (int)&#xa;&#xa;" style="text;strokeColor=none;fillColor=none;spacingLeft=4;spacingRight=4;overflow=hidden;rotatable=0;points=[[0,0.5],[1,0.5]];portConstraint=eastwest;fontSize=12;align=center;" parent="sm-JpirICVqM3WR0F_5m-225" vertex="1">
          <mxGeometry y="26" width="115" height="134" as="geometry" />
        </mxCell>
        <mxCell id="sm-JpirICVqM3WR0F_5m-227" value="Brands" style="swimlane;fontStyle=0;childLayout=stackLayout;horizontal=1;startSize=26;horizontalStack=0;resizeParent=1;resizeParentMax=0;resizeLast=0;collapsible=1;marginBottom=0;align=center;fontSize=14;" parent="1" vertex="1">
          <mxGeometry x="-1542" y="365" width="130" height="71" as="geometry" />
        </mxCell>
        <mxCell id="2HxDNWxX9x-t6P_iHvOr-13" value="" style="endArrow=none;html=1;rounded=0;" parent="sm-JpirICVqM3WR0F_5m-227" edge="1">
          <mxGeometry width="50" height="50" relative="1" as="geometry">
            <mxPoint x="50" y="46" as="sourcePoint" />
            <mxPoint x="80" y="46" as="targetPoint" />
          </mxGeometry>
        </mxCell>
        <mxCell id="sm-JpirICVqM3WR0F_5m-228" value="brand_id&#xa;brand_name" style="text;strokeColor=none;fillColor=none;spacingLeft=4;spacingRight=4;overflow=hidden;rotatable=0;points=[[0,0.5],[1,0.5]];portConstraint=eastwest;fontSize=12;align=center;" parent="sm-JpirICVqM3WR0F_5m-227" vertex="1">
          <mxGeometry y="26" width="130" height="45" as="geometry" />
        </mxCell>
        <mxCell id="sm-JpirICVqM3WR0F_5m-233" value="Post" style="swimlane;fontStyle=0;childLayout=stackLayout;horizontal=1;startSize=26;horizontalStack=0;resizeParent=1;resizeParentMax=0;resizeLast=0;collapsible=1;marginBottom=0;align=center;fontSize=14;" parent="1" vertex="1">
          <mxGeometry x="-1250" y="207" width="95" height="118" as="geometry" />
        </mxCell>
        <mxCell id="2HxDNWxX9x-t6P_iHvOr-15" value="" style="endArrow=none;html=1;rounded=0;" parent="sm-JpirICVqM3WR0F_5m-233" edge="1">
          <mxGeometry width="50" height="50" relative="1" as="geometry">
            <mxPoint x="32.5" y="45.55000000000001" as="sourcePoint" />
            <mxPoint x="62.5" y="45.55000000000001" as="targetPoint" />
          </mxGeometry>
        </mxCell>
        <mxCell id="sm-JpirICVqM3WR0F_5m-234" value="post_id&#xa;uid&#xa;post_time&#xa;title (text)&#xa;content (text)" style="text;strokeColor=none;fillColor=none;spacingLeft=4;spacingRight=4;overflow=hidden;rotatable=0;points=[[0,0.5],[1,0.5]];portConstraint=eastwest;fontSize=12;align=center;" parent="sm-JpirICVqM3WR0F_5m-233" vertex="1">
          <mxGeometry y="26" width="95" height="92" as="geometry" />
        </mxCell>
        <mxCell id="sm-JpirICVqM3WR0F_5m-241" value="Question" style="swimlane;fontStyle=0;childLayout=stackLayout;horizontal=1;startSize=26;horizontalStack=0;resizeParent=1;resizeParentMax=0;resizeLast=0;collapsible=1;marginBottom=0;align=center;fontSize=14;" parent="1" vertex="1">
          <mxGeometry x="-1245" y="340" width="90" height="110" as="geometry" />
        </mxCell>
        <mxCell id="2HxDNWxX9x-t6P_iHvOr-12" value="" style="endArrow=none;html=1;rounded=0;" parent="sm-JpirICVqM3WR0F_5m-241" edge="1">
          <mxGeometry width="50" height="50" relative="1" as="geometry">
            <mxPoint x="30" y="46" as="sourcePoint" />
            <mxPoint x="60" y="46" as="targetPoint" />
          </mxGeometry>
        </mxCell>
        <mxCell id="sm-JpirICVqM3WR0F_5m-242" value="ID&#xa;title (string)&#xa;content (string)&#xa;author (string)&#xa;time (date)" style="text;strokeColor=none;fillColor=none;spacingLeft=4;spacingRight=4;overflow=hidden;rotatable=0;points=[[0,0.5],[1,0.5]];portConstraint=eastwest;fontSize=12;align=center;" parent="sm-JpirICVqM3WR0F_5m-241" vertex="1">
          <mxGeometry y="26" width="90" height="84" as="geometry" />
        </mxCell>
        <mxCell id="TgfO3DaoS5tFxl0CVbs7-2" value="&lt;font style=&quot;font-size: 18px;&quot;&gt;post&lt;/font&gt;" style="shape=rhombus;double=1;perimeter=rhombusPerimeter;whiteSpace=wrap;html=1;align=center;" vertex="1" parent="1">
          <mxGeometry x="-1223.63" y="-1074.5" width="81" height="50" as="geometry" />
        </mxCell>
        <mxCell id="TgfO3DaoS5tFxl0CVbs7-7" value="" style="edgeStyle=orthogonalEdgeStyle;rounded=0;orthogonalLoop=1;jettySize=auto;html=1;fontSize=14;" edge="1" parent="1" source="TgfO3DaoS5tFxl0CVbs7-3">
          <mxGeometry relative="1" as="geometry">
            <mxPoint x="-1284" y="-996" as="targetPoint" />
          </mxGeometry>
        </mxCell>
        <mxCell id="TgfO3DaoS5tFxl0CVbs7-3" value="&lt;font style=&quot;font-size: 18px;&quot;&gt;like&lt;/font&gt;" style="shape=rhombus;double=1;perimeter=rhombusPerimeter;whiteSpace=wrap;html=1;align=center;" vertex="1" parent="1">
          <mxGeometry x="-1220" y="-1019.5" width="79" height="46" as="geometry" />
        </mxCell>
        <mxCell id="TgfO3DaoS5tFxl0CVbs7-4" value="&lt;font style=&quot;font-size: 14px;&quot;&gt;comment&lt;/font&gt;" style="shape=rhombus;double=1;perimeter=rhombusPerimeter;whiteSpace=wrap;html=1;align=center;" vertex="1" parent="1">
          <mxGeometry x="-1218.63" y="-969.25" width="76" height="46" as="geometry" />
        </mxCell>
        <mxCell id="TgfO3DaoS5tFxl0CVbs7-11" value="" style="endArrow=classic;html=1;rounded=0;fontSize=16;exitX=0;exitY=0.5;exitDx=0;exitDy=0;" edge="1" parent="1" source="TgfO3DaoS5tFxl0CVbs7-4">
          <mxGeometry width="50" height="50" relative="1" as="geometry">
            <mxPoint x="-1207.63" y="-1039.5" as="sourcePoint" />
            <mxPoint x="-1286" y="-986" as="targetPoint" />
          </mxGeometry>
        </mxCell>
        <mxCell id="TgfO3DaoS5tFxl0CVbs7-12" value="" style="endArrow=none;html=1;rounded=0;fontSize=16;exitX=0.908;exitY=0.435;exitDx=0;exitDy=0;exitPerimeter=0;" edge="1" parent="1">
          <mxGeometry width="50" height="50" relative="1" as="geometry">
            <mxPoint x="-1145.8980000000001" y="-994" as="sourcePoint" />
            <mxPoint x="-1090" y="-994" as="targetPoint" />
          </mxGeometry>
        </mxCell>
        <mxCell id="TgfO3DaoS5tFxl0CVbs7-13" value="" style="endArrow=none;html=1;rounded=0;fontSize=16;entryX=0.004;entryY=0.883;entryDx=0;entryDy=0;entryPerimeter=0;" edge="1" parent="1" target="TgfO3DaoS5tFxl0CVbs7-1">
          <mxGeometry width="50" height="50" relative="1" as="geometry">
            <mxPoint x="-1148" y="-950" as="sourcePoint" />
            <mxPoint x="-1081" y="-1006" as="targetPoint" />
          </mxGeometry>
        </mxCell>
        <mxCell id="TgfO3DaoS5tFxl0CVbs7-14" value="Teams" style="swimlane;fontStyle=0;childLayout=stackLayout;horizontal=1;startSize=26;horizontalStack=0;resizeParent=1;resizeParentMax=0;resizeLast=0;collapsible=1;marginBottom=0;align=center;fontSize=14;" vertex="1" parent="1">
          <mxGeometry x="-1252.88" y="70" width="114" height="121" as="geometry" />
        </mxCell>
        <mxCell id="TgfO3DaoS5tFxl0CVbs7-15" value="" style="endArrow=none;html=1;rounded=0;" edge="1" parent="TgfO3DaoS5tFxl0CVbs7-14">
          <mxGeometry width="50" height="50" relative="1" as="geometry">
            <mxPoint x="33" y="45" as="sourcePoint" />
            <mxPoint x="79" y="45" as="targetPoint" />
            <Array as="points" />
          </mxGeometry>
        </mxCell>
        <mxCell id="TgfO3DaoS5tFxl0CVbs7-19" value="uid&#xa;email (text)&#xa;name (string)&#xa;password (string)&#xa;date_of_birth (date)&#xa;gender (string)&#xa;continent (text)&#xa;nation (text)&#xa;hobby (text)&#xa;age ()     (int)&#xa;fan_id (int)&#xa;if_ticket (boolean)&#xa;if_player (boolean)&#xa;fan_team_id (int)&#xa;host_id (int)&#xa;host_description (text)&#xa;host_name (text)&#xa;&#xa;&#xa;&#xa;&#xa;&#xa;" style="text;strokeColor=none;fillColor=none;spacingLeft=4;spacingRight=4;overflow=hidden;rotatable=0;points=[[0,0.5],[1,0.5]];portConstraint=eastwest;fontSize=12;align=center;" vertex="1" parent="1">
          <mxGeometry x="-1551" y="96" width="148" height="261" as="geometry" />
        </mxCell>
        <mxCell id="TgfO3DaoS5tFxl0CVbs7-20" value="team_id&#xa;nation (text)&#xa;coach (text)&#xa;fifal_ranking (int)&#xa;group (text)&#xa;&#xa;&#xa;" style="text;strokeColor=none;fillColor=none;spacingLeft=4;spacingRight=4;overflow=hidden;rotatable=0;points=[[0,0.5],[1,0.5]];portConstraint=eastwest;fontSize=12;align=center;" vertex="1" parent="1">
          <mxGeometry x="-1252.88" y="96" width="114" height="95" as="geometry" />
        </mxCell>
        <mxCell id="TgfO3DaoS5tFxl0CVbs7-21" value="0:3" style="text;html=1;align=center;verticalAlign=middle;resizable=0;points=[];autosize=1;strokeColor=none;fillColor=none;fontSize=16;" vertex="1" parent="1">
          <mxGeometry x="-1398.63" y="-598.5" width="50" height="30" as="geometry" />
        </mxCell>
        <mxCell id="TgfO3DaoS5tFxl0CVbs7-24" value="user_vote" style="swimlane;fontStyle=0;childLayout=stackLayout;horizontal=1;startSize=26;horizontalStack=0;resizeParent=1;resizeParentMax=0;resizeLast=0;collapsible=1;marginBottom=0;align=center;fontSize=14;" vertex="1" parent="1">
          <mxGeometry x="-1549.13" y="544" width="148" height="85" as="geometry">
            <mxRectangle x="-1551" y="70" width="72" height="29" as="alternateBounds" />
          </mxGeometry>
        </mxCell>
        <mxCell id="TgfO3DaoS5tFxl0CVbs7-25" value="" style="endArrow=none;html=1;rounded=0;" edge="1" parent="TgfO3DaoS5tFxl0CVbs7-24">
          <mxGeometry width="50" height="50" relative="1" as="geometry">
            <mxPoint x="38.75" y="44.55000000000001" as="sourcePoint" />
            <mxPoint x="104" y="45" as="targetPoint" />
          </mxGeometry>
        </mxCell>
        <mxCell id="TgfO3DaoS5tFxl0CVbs7-26" value="team_id&#xa;user_id (int)&#xa;voter_time (timestamp)" style="text;strokeColor=none;fillColor=none;spacingLeft=4;spacingRight=4;overflow=hidden;rotatable=0;points=[[0,0.5],[1,0.5]];portConstraint=eastwest;fontSize=12;align=center;" vertex="1" parent="TgfO3DaoS5tFxl0CVbs7-24">
          <mxGeometry y="26" width="148" height="59" as="geometry" />
        </mxCell>
        <mxCell id="TgfO3DaoS5tFxl0CVbs7-70" value="" style="endArrow=none;html=1;rounded=0;" edge="1" parent="TgfO3DaoS5tFxl0CVbs7-24">
          <mxGeometry width="50" height="50" relative="1" as="geometry">
            <mxPoint x="43" y="62" as="sourcePoint" />
            <mxPoint x="105" y="62" as="targetPoint" />
          </mxGeometry>
        </mxCell>
        <mxCell id="TgfO3DaoS5tFxl0CVbs7-39" value="create_events" style="swimlane;fontStyle=0;childLayout=stackLayout;horizontal=1;startSize=26;horizontalStack=0;resizeParent=1;resizeParentMax=0;resizeLast=0;collapsible=1;marginBottom=0;align=center;fontSize=14;" vertex="1" parent="1">
          <mxGeometry x="-1548" y="644" width="148" height="159" as="geometry">
            <mxRectangle x="-1551" y="70" width="72" height="29" as="alternateBounds" />
          </mxGeometry>
        </mxCell>
        <mxCell id="TgfO3DaoS5tFxl0CVbs7-40" value="" style="endArrow=none;html=1;rounded=0;" edge="1" parent="TgfO3DaoS5tFxl0CVbs7-39">
          <mxGeometry width="50" height="50" relative="1" as="geometry">
            <mxPoint x="38.75" y="44.55000000000001" as="sourcePoint" />
            <mxPoint x="104" y="45" as="targetPoint" />
          </mxGeometry>
        </mxCell>
        <mxCell id="TgfO3DaoS5tFxl0CVbs7-69" value="" style="endArrow=none;html=1;rounded=0;" edge="1" parent="TgfO3DaoS5tFxl0CVbs7-39">
          <mxGeometry width="50" height="50" relative="1" as="geometry">
            <mxPoint x="41.38000000000011" y="62" as="sourcePoint" />
            <mxPoint x="106.63000000000011" y="62.44999999999982" as="targetPoint" />
          </mxGeometry>
        </mxCell>
        <mxCell id="TgfO3DaoS5tFxl0CVbs7-41" value="event_id&#xa;host_id (int)&#xa;event_time (timestamp)&#xa;description (text)&#xa;place (text)&#xa;start_time (timestamp)&#xa;end_time (timestamp)&#xa;max_capacity (int)&#xa;" style="text;strokeColor=none;fillColor=none;spacingLeft=4;spacingRight=4;overflow=hidden;rotatable=0;points=[[0,0.5],[1,0.5]];portConstraint=eastwest;fontSize=12;align=center;" vertex="1" parent="TgfO3DaoS5tFxl0CVbs7-39">
          <mxGeometry y="26" width="148" height="133" as="geometry" />
        </mxCell>
        <mxCell id="TgfO3DaoS5tFxl0CVbs7-42" value="sponsor" style="swimlane;fontStyle=0;childLayout=stackLayout;horizontal=1;startSize=26;horizontalStack=0;resizeParent=1;resizeParentMax=0;resizeLast=0;collapsible=1;marginBottom=0;align=center;fontSize=14;" vertex="1" parent="1">
          <mxGeometry x="-1381.75" y="541" width="148" height="85" as="geometry">
            <mxRectangle x="-1551" y="70" width="72" height="29" as="alternateBounds" />
          </mxGeometry>
        </mxCell>
        <mxCell id="TgfO3DaoS5tFxl0CVbs7-43" value="" style="endArrow=none;html=1;rounded=0;" edge="1" parent="TgfO3DaoS5tFxl0CVbs7-42">
          <mxGeometry width="50" height="50" relative="1" as="geometry">
            <mxPoint x="38.75" y="44.55000000000001" as="sourcePoint" />
            <mxPoint x="104" y="45" as="targetPoint" />
          </mxGeometry>
        </mxCell>
        <mxCell id="TgfO3DaoS5tFxl0CVbs7-44" value="brand_id&#xa;event_id (int)&#xa;sponsorship_fee (int)" style="text;strokeColor=none;fillColor=none;spacingLeft=4;spacingRight=4;overflow=hidden;rotatable=0;points=[[0,0.5],[1,0.5]];portConstraint=eastwest;fontSize=12;align=center;" vertex="1" parent="TgfO3DaoS5tFxl0CVbs7-42">
          <mxGeometry y="26" width="148" height="59" as="geometry" />
        </mxCell>
        <mxCell id="TgfO3DaoS5tFxl0CVbs7-71" value="" style="endArrow=none;html=1;rounded=0;" edge="1" parent="TgfO3DaoS5tFxl0CVbs7-42">
          <mxGeometry width="50" height="50" relative="1" as="geometry">
            <mxPoint x="39.75" y="58" as="sourcePoint" />
            <mxPoint x="101.75" y="58" as="targetPoint" />
          </mxGeometry>
        </mxCell>
        <mxCell id="TgfO3DaoS5tFxl0CVbs7-45" value="join_events" style="swimlane;fontStyle=0;childLayout=stackLayout;horizontal=1;startSize=26;horizontalStack=0;resizeParent=1;resizeParentMax=0;resizeLast=0;collapsible=1;marginBottom=0;align=center;fontSize=14;" vertex="1" parent="1">
          <mxGeometry x="-1200.31" y="670" width="118" height="75" as="geometry">
            <mxRectangle x="-1551" y="70" width="72" height="29" as="alternateBounds" />
          </mxGeometry>
        </mxCell>
        <mxCell id="TgfO3DaoS5tFxl0CVbs7-46" value="" style="endArrow=none;html=1;rounded=0;" edge="1" parent="TgfO3DaoS5tFxl0CVbs7-45">
          <mxGeometry width="50" height="50" relative="1" as="geometry">
            <mxPoint x="38.75" y="44.55000000000001" as="sourcePoint" />
            <mxPoint x="104" y="45" as="targetPoint" />
          </mxGeometry>
        </mxCell>
        <mxCell id="TgfO3DaoS5tFxl0CVbs7-67" value="" style="endArrow=none;html=1;rounded=0;" edge="1" parent="TgfO3DaoS5tFxl0CVbs7-45">
          <mxGeometry width="50" height="50" relative="1" as="geometry">
            <mxPoint x="35.690000000000055" y="61" as="sourcePoint" />
            <mxPoint x="100.94000000000005" y="61.44999999999982" as="targetPoint" />
          </mxGeometry>
        </mxCell>
        <mxCell id="TgfO3DaoS5tFxl0CVbs7-47" value="fan_id&#xa;event_id (int)" style="text;strokeColor=none;fillColor=none;spacingLeft=4;spacingRight=4;overflow=hidden;rotatable=0;points=[[0,0.5],[1,0.5]];portConstraint=eastwest;fontSize=12;align=center;" vertex="1" parent="TgfO3DaoS5tFxl0CVbs7-45">
          <mxGeometry y="26" width="118" height="49" as="geometry" />
        </mxCell>
        <mxCell id="TgfO3DaoS5tFxl0CVbs7-48" value="likes" style="swimlane;fontStyle=0;childLayout=stackLayout;horizontal=1;startSize=26;horizontalStack=0;resizeParent=1;resizeParentMax=0;resizeLast=0;collapsible=1;marginBottom=0;align=center;fontSize=14;" vertex="1" parent="1">
          <mxGeometry x="-1206" y="763" width="126" height="103" as="geometry">
            <mxRectangle x="-1551" y="70" width="72" height="29" as="alternateBounds" />
          </mxGeometry>
        </mxCell>
        <mxCell id="TgfO3DaoS5tFxl0CVbs7-49" value="" style="endArrow=none;html=1;rounded=0;" edge="1" parent="TgfO3DaoS5tFxl0CVbs7-48">
          <mxGeometry width="50" height="50" relative="1" as="geometry">
            <mxPoint x="38.75" y="44.55000000000001" as="sourcePoint" />
            <mxPoint x="104" y="45" as="targetPoint" />
          </mxGeometry>
        </mxCell>
        <mxCell id="TgfO3DaoS5tFxl0CVbs7-50" value="like_id&#xa;like_time (timestamp)&#xa;post_id (int)&#xa;uid (int)" style="text;strokeColor=none;fillColor=none;spacingLeft=4;spacingRight=4;overflow=hidden;rotatable=0;points=[[0,0.5],[1,0.5]];portConstraint=eastwest;fontSize=12;align=center;" vertex="1" parent="TgfO3DaoS5tFxl0CVbs7-48">
          <mxGeometry y="26" width="126" height="77" as="geometry" />
        </mxCell>
        <mxCell id="TgfO3DaoS5tFxl0CVbs7-51" value="comments" style="swimlane;fontStyle=0;childLayout=stackLayout;horizontal=1;startSize=26;horizontalStack=0;resizeParent=1;resizeParentMax=0;resizeLast=0;collapsible=1;marginBottom=0;align=center;fontSize=14;" vertex="1" parent="1">
          <mxGeometry x="-1206" y="541" width="148" height="116" as="geometry">
            <mxRectangle x="-1551" y="70" width="72" height="29" as="alternateBounds" />
          </mxGeometry>
        </mxCell>
        <mxCell id="TgfO3DaoS5tFxl0CVbs7-52" value="" style="endArrow=none;html=1;rounded=0;" edge="1" parent="TgfO3DaoS5tFxl0CVbs7-51">
          <mxGeometry width="50" height="50" relative="1" as="geometry">
            <mxPoint x="38.75" y="44.55000000000001" as="sourcePoint" />
            <mxPoint x="104" y="45" as="targetPoint" />
          </mxGeometry>
        </mxCell>
        <mxCell id="TgfO3DaoS5tFxl0CVbs7-53" value="comment_id&#xa;com_time (timestamp)&#xa;uid (int)&#xa;post_id (int)&#xa;content (text)" style="text;strokeColor=none;fillColor=none;spacingLeft=4;spacingRight=4;overflow=hidden;rotatable=0;points=[[0,0.5],[1,0.5]];portConstraint=eastwest;fontSize=12;align=center;" vertex="1" parent="TgfO3DaoS5tFxl0CVbs7-51">
          <mxGeometry y="26" width="148" height="90" as="geometry" />
        </mxCell>
        <mxCell id="TgfO3DaoS5tFxl0CVbs7-54" value="raise_questions" style="swimlane;fontStyle=0;childLayout=stackLayout;horizontal=1;startSize=26;horizontalStack=0;resizeParent=1;resizeParentMax=0;resizeLast=0;collapsible=1;marginBottom=0;align=center;fontSize=14;" vertex="1" parent="1">
          <mxGeometry x="-1376.63" y="644" width="148" height="113" as="geometry">
            <mxRectangle x="-1551" y="70" width="72" height="29" as="alternateBounds" />
          </mxGeometry>
        </mxCell>
        <mxCell id="TgfO3DaoS5tFxl0CVbs7-55" value="" style="endArrow=none;html=1;rounded=0;" edge="1" parent="TgfO3DaoS5tFxl0CVbs7-54">
          <mxGeometry width="50" height="50" relative="1" as="geometry">
            <mxPoint x="38.75" y="44.55000000000001" as="sourcePoint" />
            <mxPoint x="104" y="45" as="targetPoint" />
          </mxGeometry>
        </mxCell>
        <mxCell id="TgfO3DaoS5tFxl0CVbs7-68" value="" style="endArrow=none;html=1;rounded=0;" edge="1" parent="TgfO3DaoS5tFxl0CVbs7-54">
          <mxGeometry width="50" height="50" relative="1" as="geometry">
            <mxPoint x="54.63000000000011" y="60" as="sourcePoint" />
            <mxPoint x="87.51000000000022" y="60" as="targetPoint" />
          </mxGeometry>
        </mxCell>
        <mxCell id="TgfO3DaoS5tFxl0CVbs7-56" value="question_id&#xa;uid&#xa;tilte (text)&#xa;content (text)&#xa;question_time (timestamp)" style="text;strokeColor=none;fillColor=none;spacingLeft=4;spacingRight=4;overflow=hidden;rotatable=0;points=[[0,0.5],[1,0.5]];portConstraint=eastwest;fontSize=12;align=center;" vertex="1" parent="TgfO3DaoS5tFxl0CVbs7-54">
          <mxGeometry y="26" width="148" height="87" as="geometry" />
        </mxCell>
        <mxCell id="TgfO3DaoS5tFxl0CVbs7-63" value="follow_record" style="swimlane;fontStyle=0;childLayout=stackLayout;horizontal=1;startSize=26;horizontalStack=0;resizeParent=1;resizeParentMax=0;resizeLast=0;collapsible=1;marginBottom=0;align=center;fontSize=14;" vertex="1" parent="1">
          <mxGeometry x="-1358.0700000000002" y="771" width="110.88" height="73" as="geometry">
            <mxRectangle x="-1551" y="70" width="72" height="29" as="alternateBounds" />
          </mxGeometry>
        </mxCell>
        <mxCell id="TgfO3DaoS5tFxl0CVbs7-64" value="" style="endArrow=none;html=1;rounded=0;" edge="1" parent="TgfO3DaoS5tFxl0CVbs7-63">
          <mxGeometry width="50" height="50" relative="1" as="geometry">
            <mxPoint x="25.25" y="44.01999999999998" as="sourcePoint" />
            <mxPoint x="68.5" y="44.01999999999998" as="targetPoint" />
          </mxGeometry>
        </mxCell>
        <mxCell id="TgfO3DaoS5tFxl0CVbs7-65" value="user_id&#xa;follower_id" style="text;strokeColor=none;fillColor=none;spacingLeft=4;spacingRight=4;overflow=hidden;rotatable=0;points=[[0,0.5],[1,0.5]];portConstraint=eastwest;fontSize=12;align=center;" vertex="1" parent="TgfO3DaoS5tFxl0CVbs7-63">
          <mxGeometry y="26" width="110.88" height="47" as="geometry" />
        </mxCell>
        <mxCell id="TgfO3DaoS5tFxl0CVbs7-66" value="" style="endArrow=none;html=1;rounded=0;" edge="1" parent="TgfO3DaoS5tFxl0CVbs7-63">
          <mxGeometry width="50" height="50" relative="1" as="geometry">
            <mxPoint x="18" y="61" as="sourcePoint" />
            <mxPoint x="76" y="61" as="targetPoint" />
          </mxGeometry>
        </mxCell>
      </root>
    </mxGraphModel>
  </diagram>
</mxfile>
